<?xml version="1.0" standalone="no"?>
<!DOCTYPE svg PUBLIC "-//W3C//DTD SVG 20010904//EN"
 "http://www.w3.org/TR/2001/REC-SVG-20010904/DTD/svg10.dtd">
<svg version="1.0" xmlns="http://www.w3.org/2000/svg"
 width="1280.000000pt" height="1236.000000pt" viewBox="0 0 1280.000000 1236.000000"
 preserveAspectRatio="xMidYMid meet">
<metadata>
Created by potrace 1.15, written by Peter Selinger 2001-2017
</metadata>
<g transform="translate(0.000000,1236.000000) scale(0.100000,-0.100000)"
fill="#000000" stroke="none">
<path d="M7432 11908 c-7 -7 -12 -17 -12 -23 0 -6 -16 -26 -35 -45 -19 -19
-35 -40 -35 -46 0 -7 -16 -28 -35 -47 -19 -19 -35 -41 -35 -50 0 -8 -11 -24
-25 -35 -14 -11 -25 -26 -25 -34 0 -8 -16 -29 -35 -48 -19 -19 -35 -39 -35
-45 0 -6 -13 -24 -30 -40 -16 -16 -30 -35 -30 -42 0 -8 -11 -24 -25 -37 -14
-13 -25 -30 -25 -38 0 -8 -16 -29 -35 -48 -19 -19 -35 -39 -35 -45 0 -6 -14
-24 -31 -41 -17 -16 -37 -44 -46 -61 -8 -18 -19 -33 -24 -33 -5 0 -9 -7 -9
-16 0 -9 -16 -31 -35 -50 -19 -18 -35 -39 -35 -46 0 -8 -16 -29 -35 -48 -19
-19 -35 -39 -35 -45 0 -6 -16 -26 -35 -45 -19 -19 -35 -41 -35 -50 0 -8 -9
-22 -20 -30 -11 -8 -20 -22 -20 -31 0 -9 -16 -30 -35 -46 -19 -17 -35 -37 -35
-45 0 -8 -16 -29 -35 -48 -19 -19 -35 -40 -35 -48 0 -8 -11 -23 -25 -34 -14
-11 -25 -26 -25 -35 0 -8 -13 -28 -30 -43 -16 -15 -30 -34 -30 -42 0 -8 -16
-29 -35 -48 -19 -19 -35 -39 -35 -45 0 -6 -11 -22 -25 -35 -14 -13 -25 -30
-25 -38 0 -8 -16 -28 -35 -45 -19 -16 -35 -36 -35 -43 0 -8 -16 -31 -35 -51
-19 -20 -32 -39 -30 -42 3 -2 -2 -13 -12 -23 -16 -17 -6 -18 295 -18 201 0
312 4 312 10 0 6 117 10 330 10 213 0 330 -4 330 -10 0 -6 28 -10 64 -10 44 0
67 -5 76 -15 8 -10 30 -15 61 -15 26 0 51 -4 54 -10 3 -5 28 -10 55 -10 27 0
52 -4 55 -10 3 -5 35 -10 71 -10 36 0 64 -4 64 -10 0 -5 22 -10 49 -10 31 0
55 -6 65 -15 8 -8 26 -15 40 -15 21 0 26 5 26 25 0 14 -4 25 -10 25 -5 0 -10
13 -10 29 0 17 -4 33 -10 36 -5 3 -10 24 -10 45 0 21 -4 42 -10 45 -5 3 -10
20 -10 36 0 17 -6 32 -15 35 -8 4 -15 19 -15 34 0 16 -4 32 -10 35 -5 3 -10
24 -10 45 0 21 -4 42 -10 45 -5 3 -10 17 -10 31 0 14 -7 32 -15 40 -8 9 -15
26 -15 39 0 13 -4 27 -10 30 -5 3 -10 24 -10 45 0 21 -4 42 -10 45 -5 3 -10
19 -10 36 0 16 -4 29 -10 29 -5 0 -10 13 -10 29 0 16 -7 34 -15 41 -9 7 -15
29 -15 51 0 21 -4 41 -10 44 -5 3 -10 19 -10 36 0 16 -4 29 -10 29 -5 0 -10
13 -10 29 0 16 -7 34 -15 41 -8 7 -15 25 -15 41 0 16 -4 29 -10 29 -5 0 -10
20 -10 45 0 25 -4 45 -10 45 -5 0 -10 13 -10 29 0 17 -4 33 -10 36 -5 3 -10
20 -10 36 0 17 -6 32 -15 35 -10 4 -15 20 -15 50 0 24 -4 44 -10 44 -5 0 -10
13 -10 29 0 17 -4 33 -10 36 -5 3 -10 17 -10 31 0 14 -7 33 -16 41 -10 10 -14
27 -12 45 3 16 -1 33 -9 39 -7 6 -13 24 -13 40 0 15 -4 31 -10 34 -5 3 -10 19
-10 36 0 16 -4 29 -10 29 -5 0 -10 17 -10 39 0 22 -6 44 -15 51 -8 7 -15 22
-15 34 0 23 -21 76 -30 76 -4 0 -11 -5 -18 -12z"/>
<path d="M2530 10586 c0 -7 7 -19 15 -26 8 -7 15 -21 15 -31 0 -11 5 -19 10
-19 6 0 10 -13 10 -29 0 -17 5 -33 10 -36 6 -3 10 -16 10 -29 0 -25 25 -82 41
-91 5 -4 9 -19 9 -36 0 -16 5 -29 10 -29 6 0 10 -13 10 -29 0 -17 5 -33 10
-36 6 -3 10 -14 10 -25 0 -10 7 -20 15 -24 9 -3 15 -18 15 -35 0 -16 5 -33 10
-36 6 -3 10 -19 10 -36 0 -16 5 -29 10 -29 6 0 10 -9 10 -19 0 -11 5 -23 10
-26 6 -3 10 -17 10 -29 0 -13 7 -29 15 -36 8 -7 15 -23 15 -36 0 -13 9 -39 20
-59 11 -20 20 -46 20 -59 0 -13 6 -29 14 -35 8 -7 13 -21 11 -31 -2 -10 3 -24
11 -31 8 -6 14 -20 14 -30 0 -11 5 -19 10 -19 6 0 10 -13 10 -29 0 -17 5 -33
10 -36 6 -3 10 -14 10 -25 0 -10 7 -20 15 -24 9 -3 15 -18 15 -35 0 -16 5 -33
10 -36 6 -3 10 -19 10 -36 0 -16 5 -29 10 -29 6 0 10 -9 10 -19 0 -11 5 -23
10 -26 6 -3 10 -17 10 -29 0 -13 7 -29 15 -36 8 -7 15 -23 15 -36 0 -13 9 -39
20 -59 11 -20 20 -46 20 -59 0 -13 7 -29 15 -36 8 -7 15 -23 15 -36 0 -12 5
-26 10 -29 6 -3 10 -15 10 -26 0 -10 5 -19 10 -19 6 0 10 -13 10 -29 0 -17 5
-33 10 -36 6 -3 10 -20 10 -36 0 -17 6 -32 15 -35 8 -4 15 -14 15 -24 0 -11 5
-22 10 -25 6 -3 10 -19 10 -36 0 -16 5 -29 10 -29 6 0 10 -13 10 -29 0 -17 4
-32 9 -36 13 -7 41 -64 41 -82 0 -7 3 -13 6 -13 4 0 51 45 105 100 55 55 105
100 112 100 7 0 64 52 127 115 63 63 119 115 125 115 6 0 26 16 45 35 19 19
40 35 48 35 7 0 28 16 46 35 19 19 40 35 48 35 8 0 29 16 48 35 19 19 39 35
45 35 6 0 26 16 45 35 19 19 39 35 45 35 7 0 26 14 43 30 18 17 38 30 45 30 6
0 26 16 42 35 17 19 37 35 46 35 8 0 26 11 39 25 13 14 29 25 35 25 7 0 20 9
30 20 10 11 24 20 32 20 8 0 24 11 37 25 13 14 30 25 38 25 8 0 25 11 38 25
12 13 26 22 30 20 4 -2 18 7 30 20 13 14 30 25 37 25 14 0 43 23 43 34 0 7
-61 36 -77 36 -7 0 -13 5 -13 10 0 6 -9 10 -20 10 -11 0 -20 5 -20 10 0 6 -8
10 -19 10 -10 0 -24 7 -31 15 -7 8 -25 15 -41 15 -16 0 -29 5 -29 10 0 6 -8
10 -17 11 -10 0 -31 9 -48 19 -54 34 -88 50 -105 50 -19 0 -117 48 -126 61 -3
5 -18 9 -34 9 -16 0 -32 5 -35 10 -3 6 -15 10 -26 10 -10 0 -19 5 -19 10 0 6
-9 10 -20 10 -11 0 -20 4 -20 8 0 11 -72 42 -98 42 -12 0 -22 5 -22 10 0 6 -8
10 -17 11 -10 0 -31 9 -48 19 -55 34 -88 50 -105 50 -20 0 -77 27 -85 41 -4 5
-10 7 -15 4 -4 -3 -13 2 -20 10 -7 8 -21 15 -31 15 -11 0 -19 5 -19 10 0 6
-13 10 -29 10 -17 0 -33 5 -36 10 -3 6 -14 10 -25 10 -10 0 -20 7 -24 15 -3 8
-15 15 -26 15 -11 0 -20 5 -20 10 0 6 -9 10 -19 10 -11 0 -23 5 -26 10 -3 6
-18 10 -33 11 -15 0 -40 9 -57 19 -52 32 -88 50 -102 50 -7 0 -13 5 -13 10 0
6 -13 10 -29 10 -17 0 -32 4 -36 9 -7 13 -64 41 -82 41 -7 0 -13 5 -13 10 0 6
-11 10 -23 10 -26 0 -83 25 -92 41 -4 5 -15 9 -26 9 -10 0 -19 5 -19 10 0 6
-9 10 -19 10 -11 0 -23 5 -26 10 -3 6 -19 10 -35 10 -16 0 -31 4 -34 9 -8 12
-106 61 -123 61 -7 0 -13 5 -13 10 0 6 -11 10 -25 10 -15 0 -25 -6 -25 -14z"/>
<path d="M11315 10020 c-3 -5 -19 -10 -36 -10 -16 0 -29 -4 -29 -10 0 -5 -13
-10 -29 -10 -17 0 -33 -4 -36 -10 -3 -5 -20 -10 -36 -10 -17 0 -32 -6 -35 -15
-4 -8 -19 -15 -34 -15 -16 0 -32 -4 -35 -10 -3 -5 -15 -10 -26 -10 -10 0 -19
-4 -19 -10 0 -5 -13 -10 -29 -10 -16 0 -34 -7 -41 -15 -7 -8 -25 -15 -41 -15
-16 0 -29 -4 -29 -10 0 -5 -16 -10 -35 -10 -19 0 -35 -4 -35 -10 0 -5 -13 -10
-29 -10 -17 0 -33 -4 -36 -10 -3 -5 -17 -10 -29 -10 -13 0 -29 -7 -36 -15 -7
-8 -25 -15 -41 -15 -15 0 -31 -4 -34 -10 -3 -5 -19 -10 -36 -10 -16 0 -29 -4
-29 -10 0 -5 -13 -10 -29 -10 -16 0 -34 -7 -41 -15 -7 -8 -25 -15 -41 -15 -16
0 -29 -4 -29 -10 0 -5 -9 -10 -19 -10 -11 0 -23 -4 -26 -10 -3 -5 -19 -10 -36
-10 -16 0 -29 -4 -29 -10 0 -5 -13 -10 -29 -10 -16 0 -34 -7 -41 -15 -7 -8
-25 -15 -41 -15 -16 0 -29 -4 -29 -10 0 -5 -13 -10 -29 -10 -17 0 -33 -4 -36
-10 -3 -5 -19 -10 -34 -10 -16 0 -34 -7 -42 -16 -7 -8 -21 -13 -30 -11 -10 3
-23 -1 -30 -9 -6 -8 -24 -14 -40 -14 -15 0 -31 -4 -34 -10 -3 -5 -19 -10 -36
-10 -16 0 -29 -4 -29 -10 0 -5 -13 -10 -29 -10 -17 0 -32 -4 -36 -9 -9 -16
-66 -41 -91 -41 -13 0 -26 -4 -29 -10 -3 -5 -19 -10 -36 -10 -16 0 -29 -4 -29
-10 0 -5 -13 -10 -29 -10 -16 0 -34 -7 -41 -15 -7 -8 -25 -15 -41 -15 -16 0
-29 -4 -29 -10 0 -5 -9 -10 -20 -10 -11 0 -20 -4 -20 -10 0 -5 6 -10 14 -10 7
0 19 -7 26 -15 7 -8 21 -15 31 -15 11 0 19 -4 19 -10 0 -5 9 -10 20 -10 11 0
20 -4 20 -10 0 -5 13 -10 29 -10 17 0 33 -4 36 -10 3 -5 15 -10 26 -10 11 0
22 -7 25 -15 4 -8 19 -15 34 -15 16 0 32 -4 35 -10 3 -5 15 -10 26 -10 10 0
19 -4 19 -10 0 -5 8 -10 19 -10 10 0 24 -7 31 -15 7 -8 23 -15 36 -15 12 0 26
-4 29 -10 3 -5 15 -10 26 -10 10 0 19 -4 19 -10 0 -5 6 -10 13 -10 23 0 77
-31 77 -44 0 -7 16 -27 35 -46 19 -19 35 -40 35 -48 0 -7 16 -28 35 -46 19
-19 35 -40 35 -48 0 -8 16 -29 35 -48 19 -19 35 -39 35 -45 0 -6 14 -24 30
-40 17 -16 30 -34 30 -40 0 -6 16 -28 35 -48 19 -20 35 -43 35 -51 0 -7 16
-27 35 -43 19 -17 35 -37 35 -45 0 -8 16 -29 35 -48 19 -19 35 -39 35 -45 0
-7 8 -19 18 -29 18 -15 20 -15 35 2 10 10 17 26 17 35 0 9 5 17 10 17 6 0 10
9 10 20 0 11 5 20 10 20 6 0 10 9 10 19 0 11 4 22 9 26 13 7 41 64 41 82 0 7
5 13 10 13 6 0 10 8 10 19 0 10 7 24 15 31 8 7 13 16 10 20 -3 4 2 13 10 20 8
7 15 18 15 25 0 6 9 20 20 30 11 10 20 27 20 37 0 10 7 21 15 24 8 4 15 12 15
20 0 7 9 29 20 49 11 20 20 42 20 50 0 8 4 15 9 15 5 0 12 11 15 25 4 14 11
25 16 25 6 0 10 7 10 15 0 8 9 30 20 50 11 20 20 42 20 49 0 8 7 16 15 20 8 3
15 14 15 24 0 11 7 25 15 32 9 7 25 33 35 56 11 24 24 46 30 49 5 3 10 15 10
26 0 10 5 19 10 19 6 0 10 6 10 13 0 18 28 75 41 82 5 4 9 15 9 26 0 10 5 19
10 19 6 0 10 9 10 20 0 11 5 20 10 20 6 0 10 8 10 18 0 11 9 27 20 37 22 20
50 71 50 92 0 7 5 13 10 13 6 0 10 9 10 19 0 11 4 22 9 26 13 7 41 64 41 82 0
7 5 13 10 13 6 0 10 8 11 18 0 9 9 31 19 47 32 52 50 88 50 102 0 7 5 13 10
13 6 0 10 5 10 10 0 6 -9 10 -19 10 -11 0 -23 -4 -26 -10z"/>
<path d="M6455 9770 c-4 -6 -53 -10 -116 -10 -66 0 -109 -4 -109 -10 0 -6 -31
-10 -74 -10 -53 0 -77 -4 -86 -15 -8 -10 -30 -15 -61 -15 -26 0 -51 -4 -54
-10 -3 -5 -31 -10 -61 -10 -30 0 -54 -4 -54 -10 0 -5 -20 -10 -45 -10 -25 0
-45 -4 -45 -10 0 -5 -13 -10 -29 -10 -16 0 -34 -7 -41 -15 -7 -9 -29 -15 -51
-15 -22 0 -39 -4 -39 -10 0 -5 -13 -10 -29 -10 -17 0 -33 -4 -36 -10 -3 -5
-13 -10 -21 -10 -9 0 -23 -7 -31 -16 -9 -8 -24 -13 -34 -11 -10 3 -23 -1 -30
-9 -6 -8 -24 -14 -40 -14 -16 0 -29 -4 -29 -10 0 -5 -13 -10 -29 -10 -17 0
-33 -4 -36 -10 -3 -5 -14 -10 -25 -10 -10 0 -20 -7 -24 -15 -3 -8 -12 -15 -20
-15 -9 0 -31 -9 -51 -20 -20 -11 -42 -20 -50 -20 -8 0 -15 -4 -15 -10 0 -5
-13 -10 -29 -10 -17 0 -32 -4 -36 -9 -7 -13 -64 -41 -82 -41 -7 0 -13 -4 -13
-10 0 -5 -9 -10 -19 -10 -11 0 -28 -11 -39 -25 -11 -14 -27 -25 -35 -25 -9 0
-19 -4 -22 -10 -3 -5 -13 -10 -22 -10 -8 0 -24 -11 -35 -25 -11 -14 -28 -25
-39 -25 -10 0 -19 -4 -19 -10 0 -5 -8 -10 -18 -10 -10 0 -29 -11 -42 -25 -13
-14 -29 -25 -35 -25 -7 0 -20 -9 -30 -20 -10 -11 -24 -20 -32 -20 -8 0 -29
-16 -47 -35 -19 -19 -40 -35 -48 -35 -8 0 -25 -11 -38 -25 -12 -13 -26 -22
-30 -20 -4 2 -29 -18 -55 -45 -27 -28 -55 -50 -62 -50 -6 0 -52 -40 -100 -90
-48 -49 -94 -90 -101 -90 -18 0 -72 -51 -72 -67 0 -8 -52 -66 -115 -130 -63
-63 -115 -121 -115 -127 0 -7 -20 -32 -45 -56 -25 -24 -45 -49 -45 -55 0 -6
-13 -24 -30 -40 -17 -16 -30 -34 -30 -42 0 -7 -16 -28 -35 -47 -19 -20 -35
-42 -35 -49 0 -8 -7 -20 -15 -27 -8 -7 -15 -18 -15 -25 0 -6 -9 -20 -20 -30
-11 -10 -20 -25 -20 -33 0 -8 -11 -23 -25 -34 -14 -11 -25 -28 -25 -39 0 -10
-4 -19 -10 -19 -5 0 -10 -8 -10 -18 0 -11 -9 -27 -20 -37 -22 -20 -50 -71 -50
-92 0 -7 -4 -13 -10 -13 -5 0 -10 -8 -11 -17 0 -10 -9 -31 -19 -48 -32 -52
-50 -88 -50 -102 0 -7 -4 -13 -10 -13 -5 0 -10 -8 -10 -19 0 -10 -7 -24 -15
-31 -8 -7 -15 -23 -15 -36 0 -12 -4 -26 -10 -29 -5 -3 -10 -15 -10 -26 0 -10
-4 -19 -10 -19 -5 0 -10 -13 -10 -29 0 -17 -4 -33 -10 -36 -5 -3 -10 -15 -10
-26 0 -11 -7 -22 -15 -25 -8 -4 -15 -19 -15 -34 0 -16 -4 -32 -10 -35 -5 -3
-10 -19 -10 -36 0 -16 -4 -29 -10 -29 -5 0 -10 -18 -10 -41 0 -23 -7 -47 -15
-55 -8 -9 -15 -26 -15 -39 0 -13 -4 -27 -10 -30 -5 -3 -10 -24 -10 -45 0 -21
-4 -42 -10 -45 -5 -3 -10 -28 -10 -55 0 -27 -4 -52 -10 -55 -5 -3 -10 -28 -10
-54 0 -31 -5 -53 -15 -61 -10 -9 -15 -32 -15 -76 0 -36 -4 -64 -10 -64 -6 0
-10 -43 -10 -109 0 -63 -4 -112 -10 -116 -14 -8 -14 -542 0 -550 6 -4 10 -53
10 -116 0 -66 4 -109 10 -109 6 0 10 -28 10 -64 0 -44 5 -67 15 -76 10 -8 15
-30 15 -61 0 -26 5 -51 10 -54 6 -3 10 -28 10 -55 0 -27 5 -52 10 -55 6 -3 10
-24 10 -45 0 -21 5 -42 10 -45 6 -3 10 -17 10 -30 0 -13 7 -30 15 -39 8 -8 15
-32 15 -55 0 -23 5 -41 10 -41 6 0 10 -13 10 -29 0 -17 5 -33 10 -36 6 -3 10
-19 10 -35 0 -15 7 -30 15 -34 8 -3 15 -15 15 -26 0 -11 5 -20 10 -20 6 0 10
-16 10 -35 0 -19 5 -35 10 -35 6 0 10 -9 10 -20 0 -11 5 -20 10 -20 6 0 10
-13 10 -29 0 -16 7 -34 15 -41 8 -7 15 -21 15 -31 0 -11 5 -19 10 -19 6 0 10
-9 10 -20 0 -11 5 -20 10 -20 6 0 10 -9 10 -19 0 -11 4 -22 9 -26 13 -7 41
-64 41 -82 0 -7 5 -13 10 -13 6 0 10 -6 10 -13 0 -21 28 -72 50 -92 11 -10 20
-26 20 -37 0 -10 5 -18 10 -18 6 0 10 -9 10 -19 0 -11 11 -28 25 -39 14 -11
25 -26 25 -34 0 -8 9 -23 20 -33 11 -10 20 -24 20 -30 0 -7 7 -18 15 -25 8 -7
15 -19 15 -27 0 -7 16 -29 35 -49 19 -19 35 -39 35 -45 0 -5 13 -24 30 -42 16
-18 30 -37 30 -42 0 -6 22 -33 49 -59 28 -27 49 -53 48 -57 -1 -5 49 -60 111
-123 61 -62 112 -120 112 -128 0 -16 35 -48 53 -48 6 0 57 -45 111 -100 55
-55 105 -100 111 -100 6 0 31 -20 55 -45 24 -25 49 -45 55 -45 6 0 22 -11 35
-25 13 -14 30 -25 38 -25 8 0 30 -16 49 -35 19 -19 40 -35 47 -35 7 0 21 -9
31 -20 10 -11 23 -20 30 -20 6 0 22 -11 35 -25 13 -14 32 -25 42 -25 10 0 18
-4 18 -10 0 -5 8 -10 18 -10 11 0 27 -9 37 -20 19 -20 70 -50 88 -50 5 0 18
-11 29 -25 11 -14 28 -25 39 -25 10 0 19 -4 19 -10 0 -5 7 -10 15 -10 8 0 30
-9 50 -20 20 -11 46 -20 60 -20 13 0 26 -4 30 -9 7 -13 64 -41 82 -41 7 0 13
-4 13 -10 0 -5 9 -10 20 -10 11 0 23 -7 26 -15 4 -8 14 -15 24 -15 11 0 22 -4
25 -10 3 -5 19 -10 36 -10 16 0 29 -4 29 -10 0 -5 13 -10 29 -10 17 0 33 -4
36 -10 3 -5 20 -10 36 -10 17 0 32 -6 35 -15 4 -8 14 -15 24 -15 11 0 22 -4
25 -10 3 -5 19 -10 36 -10 16 0 29 -4 29 -10 0 -5 17 -10 39 -10 22 0 44 -6
51 -15 7 -8 25 -15 41 -15 15 0 31 -4 34 -10 3 -5 24 -10 46 -10 21 0 39 -4
39 -10 0 -5 24 -10 54 -10 30 0 58 -5 61 -10 3 -6 28 -10 54 -10 31 0 53 -5
61 -15 9 -11 33 -15 86 -15 43 0 74 -4 74 -10 0 -6 43 -10 109 -10 63 0 112
-4 116 -10 8 -14 575 -14 575 0 0 6 43 10 109 10 63 0 112 4 116 10 3 6 39 10
79 10 53 0 77 4 86 15 8 10 30 15 61 15 27 0 49 5 49 10 0 6 24 10 54 10 30 0
58 5 61 10 3 6 24 10 45 10 21 0 42 5 45 10 3 6 17 10 29 10 13 0 29 7 36 15
7 9 29 15 51 15 21 0 41 4 44 10 3 6 19 10 36 10 16 0 29 5 29 10 0 6 8 10 19
10 10 0 24 7 31 15 7 8 25 15 41 15 16 0 29 5 29 10 0 6 13 10 29 10 17 0 33
5 36 10 3 6 18 10 33 11 15 0 41 9 57 19 52 32 88 50 102 50 7 0 13 5 13 10 0
6 8 10 19 10 10 0 24 7 31 15 7 8 23 15 36 15 12 0 26 5 29 10 3 6 15 10 26
10 10 0 19 5 19 10 0 6 6 10 13 10 21 0 72 28 92 50 10 11 26 20 37 20 10 0
18 5 18 10 0 6 9 10 19 10 11 0 28 11 39 25 11 14 27 25 35 25 9 0 19 5 22 10
3 6 13 10 22 10 8 0 24 11 35 25 11 14 27 25 37 25 9 0 23 9 31 20 8 11 22 20
30 20 9 0 31 16 50 35 19 19 39 35 45 35 6 0 22 11 35 25 13 14 30 25 38 25 8
0 33 20 56 45 24 25 49 45 57 45 8 0 54 41 103 90 49 50 94 90 101 90 14 0 65
52 65 67 0 6 52 62 115 124 63 62 115 119 115 126 0 8 20 33 45 57 25 25 45
50 45 58 0 8 16 29 35 48 19 19 35 39 35 45 0 6 16 26 35 45 19 19 35 42 35
52 0 10 5 18 10 18 6 0 10 7 10 16 0 9 11 27 25 40 14 13 25 29 25 37 0 8 7
20 15 27 9 7 25 34 37 59 11 25 29 53 39 62 11 9 19 23 20 30 0 8 9 28 19 44
32 52 50 88 50 102 0 7 5 13 10 13 6 0 10 6 10 13 0 18 28 75 41 82 5 4 9 15
9 26 0 10 5 19 10 19 6 0 10 11 10 23 0 26 25 83 41 92 5 4 9 17 9 30 0 14 9
40 20 60 11 20 20 46 20 60 0 13 5 27 10 30 6 3 10 17 10 29 0 13 7 29 15 36
9 7 15 29 15 51 0 21 5 41 10 44 6 3 10 19 10 36 0 16 5 29 10 29 6 0 10 18
10 41 0 23 7 47 15 55 9 10 15 34 15 65 0 27 5 49 10 49 6 0 10 25 10 55 0 30
5 55 10 55 6 0 10 28 10 64 0 36 4 68 10 71 6 4 10 54 10 116 0 88 3 111 15
115 13 5 15 45 15 274 0 229 -2 269 -15 274 -12 4 -15 27 -15 115 0 62 -4 112
-10 116 -5 3 -10 35 -10 71 0 36 -4 64 -10 64 -5 0 -10 25 -10 55 0 30 -4 55
-10 55 -5 0 -10 22 -10 49 0 31 -6 55 -15 65 -8 8 -15 32 -15 55 0 23 -4 41
-10 41 -5 0 -10 13 -10 29 0 17 -4 33 -10 36 -5 3 -10 23 -10 44 0 22 -6 44
-15 51 -8 7 -15 25 -15 41 0 16 -4 29 -10 29 -5 0 -10 11 -10 25 0 13 -9 40
-20 60 -11 20 -20 46 -20 60 0 13 -4 26 -9 30 -16 9 -41 66 -41 92 0 12 -4 23
-10 23 -5 0 -10 9 -10 19 0 11 -4 22 -9 26 -13 7 -41 64 -41 82 0 7 -4 13 -10
13 -5 0 -10 8 -11 18 0 9 -9 31 -19 47 -29 46 -50 87 -50 97 0 5 -11 21 -24
35 -14 15 -23 30 -21 34 3 4 -2 12 -10 19 -8 7 -15 18 -15 25 0 6 -9 20 -20
30 -11 10 -20 24 -20 32 0 8 -11 24 -25 37 -14 13 -25 28 -25 33 0 20 -30 69
-60 98 -16 16 -30 35 -30 42 0 8 -16 27 -35 44 -19 17 -35 38 -35 46 0 8 -20
34 -45 59 -25 24 -45 49 -45 56 0 7 -52 65 -115 128 -63 63 -115 120 -115 125
0 14 -52 65 -66 65 -5 0 -50 41 -99 90 -49 50 -96 90 -104 90 -8 0 -33 20 -57
45 -23 25 -48 45 -56 45 -8 0 -25 11 -38 25 -13 14 -29 25 -35 25 -6 0 -26 16
-45 35 -19 19 -41 35 -50 35 -8 0 -22 9 -30 20 -8 11 -22 20 -31 20 -9 0 -25
11 -35 25 -10 14 -24 25 -30 25 -19 0 -70 29 -89 50 -10 11 -26 20 -37 20 -10
0 -18 5 -18 10 0 6 -8 10 -18 10 -11 0 -27 9 -37 20 -20 22 -71 50 -92 50 -7
0 -13 5 -13 10 0 6 -8 10 -19 10 -10 0 -24 7 -31 15 -7 8 -23 15 -36 15 -12 0
-26 5 -29 10 -3 6 -15 10 -26 10 -10 0 -19 5 -19 10 0 6 -8 10 -17 11 -10 0
-31 9 -48 19 -58 36 -88 50 -111 50 -13 0 -26 5 -29 10 -3 6 -19 10 -36 10
-16 0 -29 5 -29 10 0 6 -13 10 -29 10 -17 0 -32 4 -36 9 -9 16 -66 41 -91 41
-13 0 -26 5 -29 10 -3 6 -23 10 -44 10 -22 0 -44 6 -51 15 -7 8 -23 15 -36 15
-12 0 -26 5 -29 10 -3 6 -24 10 -45 10 -21 0 -42 5 -45 10 -3 6 -28 10 -55 10
-27 0 -52 5 -55 10 -3 6 -28 10 -54 10 -31 0 -53 5 -61 15 -9 11 -33 15 -86
15 -40 0 -76 5 -79 10 -4 6 -53 10 -116 10 -66 0 -109 4 -109 10 0 6 -101 10
-284 10 -179 0 -287 -4 -291 -10z"/>
<path d="M2690 7446 c-7 -10 -28 -16 -51 -16 -22 0 -39 -4 -39 -10 0 -5 -20
-10 -45 -10 -25 0 -45 -4 -45 -10 0 -6 -26 -10 -58 -10 -55 0 -114 -19 -127
-41 -4 -5 -15 -9 -26 -9 -10 0 -19 -4 -19 -10 0 -5 -8 -10 -18 -10 -11 0 -27
-9 -37 -20 -20 -22 -71 -50 -92 -50 -7 0 -13 -4 -13 -10 0 -5 -9 -10 -20 -10
-11 0 -20 -4 -20 -10 0 -5 -8 -10 -18 -10 -11 0 -27 -9 -37 -20 -18 -20 -70
-50 -87 -50 -5 0 -16 -7 -25 -15 -8 -8 -18 -13 -23 -10 -5 3 -17 -6 -28 -20
-11 -14 -24 -25 -29 -25 -14 0 -72 -30 -78 -41 -4 -5 -15 -9 -26 -9 -10 0 -19
-4 -19 -10 0 -5 -8 -10 -18 -10 -10 0 -33 -16 -52 -35 -19 -19 -39 -35 -45
-35 -6 0 -31 -20 -55 -45 -24 -25 -50 -45 -58 -45 -7 0 -33 -20 -56 -45 -24
-25 -50 -45 -57 -45 -8 0 -38 -25 -68 -55 -30 -30 -59 -55 -65 -55 -7 0 -34
-22 -61 -50 -27 -27 -55 -50 -62 -50 -7 0 -31 -20 -55 -45 -24 -25 -49 -45
-56 -45 -18 0 -64 -48 -58 -59 4 -5 14 -7 24 -4 10 2 24 -3 31 -11 9 -11 31
-16 67 -16 30 0 54 -4 54 -10 0 -5 25 -10 55 -10 30 0 55 -4 55 -10 0 -5 24
-10 54 -10 35 0 58 -5 66 -15 8 -10 30 -15 61 -15 26 0 51 -4 54 -10 3 -5 28
-10 55 -10 27 0 52 -4 55 -10 3 -5 19 -10 36 -10 16 0 29 -4 29 -10 0 -5 9
-10 19 -10 11 0 22 -4 26 -9 7 -13 64 -41 82 -41 7 0 13 -4 13 -10 0 -5 8 -10
19 -10 10 0 24 -7 31 -15 7 -8 18 -15 25 -15 7 0 18 -7 26 -16 7 -9 35 -25 61
-37 26 -11 48 -24 48 -29 0 -4 7 -8 15 -8 8 0 30 -9 50 -20 20 -11 42 -20 50
-20 8 0 15 -4 15 -9 0 -5 10 -13 23 -17 12 -4 29 -15 38 -25 9 -11 21 -19 26
-19 14 0 72 -30 78 -41 4 -5 15 -9 26 -9 10 0 19 -4 19 -10 0 -5 7 -10 15 -10
8 0 30 -9 50 -20 20 -11 38 -20 40 -20 3 0 5 45 5 100 0 60 4 100 10 100 6 0
10 70 10 189 0 155 3 191 15 201 12 10 15 36 15 116 0 58 4 106 10 109 6 3 10
19 10 35 0 16 5 32 10 35 6 3 10 19 10 35 0 15 7 30 15 34 9 3 15 18 15 35 0
16 5 33 10 36 6 3 10 19 10 36 0 16 5 29 10 29 6 0 10 13 10 29 0 17 5 33 10
36 6 3 10 23 10 44 0 22 6 44 15 51 8 7 15 25 15 41 0 16 5 29 10 29 6 0 10
13 10 29 0 17 5 33 10 36 6 3 10 19 10 34 0 16 7 34 15 41 8 7 15 23 15 36 0
12 5 26 10 29 6 3 10 19 10 36 0 16 5 29 11 29 6 0 9 10 7 23 -4 27 -48 36
-68 13z"/>
<path d="M10910 6475 c0 -25 5 -45 10 -45 6 0 10 -33 10 -80 0 -47 4 -80 10
-80 6 0 10 -37 10 -90 0 -53 4 -90 10 -90 6 0 10 -31 10 -74 0 -53 4 -77 15
-86 10 -8 15 -31 15 -70 0 -39 -5 -62 -15 -70 -9 -7 -15 -29 -15 -51 0 -22 -4
-39 -10 -39 -5 0 -10 -20 -10 -45 0 -25 -4 -45 -10 -45 -5 0 -10 -24 -10 -54
0 -30 -4 -58 -10 -61 -5 -3 -10 -24 -10 -46 0 -26 -5 -42 -15 -45 -10 -4 -15
-20 -15 -50 0 -24 -4 -44 -10 -44 -5 0 -10 -25 -10 -55 0 -30 -4 -55 -10 -55
-5 0 -10 -18 -10 -41 0 -24 -7 -47 -16 -56 -10 -10 -14 -27 -12 -45 3 -16 -1
-33 -9 -39 -7 -6 -13 -24 -13 -40 0 -28 2 -29 44 -29 25 0 48 5 51 10 3 6 40
10 81 10 43 0 74 4 74 10 0 6 31 10 74 10 53 0 77 4 86 15 9 11 33 15 86 15
40 0 76 5 79 10 3 6 40 10 81 10 43 0 74 4 74 10 0 6 33 10 79 10 61 0 80 3
85 15 4 11 22 15 71 15 37 0 65 4 65 10 0 6 33 10 80 10 47 0 80 4 80 10 0 6
31 10 74 10 41 0 78 5 81 10 3 6 39 10 79 10 53 0 77 4 86 15 9 11 33 15 86
15 43 0 74 4 74 10 0 6 20 10 45 10 25 0 45 2 45 5 0 11 -61 65 -73 65 -7 0
-33 20 -57 45 -24 25 -49 45 -55 45 -6 0 -31 20 -55 45 -24 25 -50 45 -57 45
-7 0 -33 20 -56 45 -24 25 -50 45 -59 45 -8 0 -32 20 -54 45 -21 24 -46 45
-54 45 -9 0 -36 20 -60 45 -24 25 -49 45 -55 45 -6 0 -34 22 -61 50 -27 27
-55 50 -62 50 -7 0 -38 25 -67 55 -30 30 -60 55 -68 55 -7 0 -33 20 -57 45
-24 25 -49 45 -55 45 -6 0 -31 20 -55 45 -24 25 -50 45 -56 45 -7 0 -33 20
-57 45 -25 25 -51 45 -59 45 -7 0 -32 20 -56 45 -24 25 -48 45 -55 45 -7 0
-35 22 -62 50 -26 27 -51 47 -55 45 -4 -2 -29 18 -56 45 -27 27 -56 50 -64 50
-9 0 -22 9 -30 20 -22 31 -30 24 -30 -25z"/>
<path d="M2523 4155 c-7 -8 -13 -18 -13 -23 0 -14 -30 -71 -41 -77 -5 -4 -9
-15 -9 -26 0 -10 -4 -19 -10 -19 -5 0 -10 -9 -10 -20 0 -11 -4 -20 -10 -20 -5
0 -10 -8 -10 -18 0 -11 -9 -27 -20 -37 -22 -20 -50 -71 -50 -92 0 -7 -4 -13
-10 -13 -5 0 -10 -8 -10 -19 0 -10 -7 -24 -15 -31 -8 -7 -15 -18 -15 -25 0 -6
-9 -20 -20 -30 -11 -10 -20 -26 -20 -37 0 -10 -4 -18 -10 -18 -5 0 -10 -9 -10
-19 0 -11 -4 -22 -9 -25 -11 -7 -61 -105 -61 -119 0 -5 -11 -20 -25 -33 -14
-13 -25 -27 -25 -32 0 -13 -51 -111 -61 -118 -5 -3 -9 -13 -9 -22 0 -10 -9
-24 -20 -32 -11 -8 -20 -22 -20 -30 0 -9 -11 -27 -25 -40 -14 -13 -25 -29 -25
-35 0 -7 -9 -20 -20 -30 -11 -10 -20 -24 -20 -32 0 -8 -11 -24 -25 -37 -14
-13 -25 -30 -25 -38 0 -8 -16 -29 -35 -48 -19 -19 -35 -39 -35 -45 0 -7 -9
-20 -20 -30 -11 -10 -20 -23 -20 -30 0 -6 -11 -22 -25 -35 -14 -13 -25 -31
-25 -40 0 -8 -9 -22 -20 -30 -11 -8 -20 -22 -20 -32 0 -9 -4 -20 -10 -23 -5
-3 -10 -10 -10 -16 0 -12 97 -12 105 1 4 6 53 10 115 10 62 0 111 4 115 10 3
6 48 10 99 10 71 0 97 4 106 15 10 12 37 15 121 15 66 0 109 4 109 10 0 6 52
10 135 10 83 0 135 4 135 10 0 6 51 10 133 10 84 0 137 4 144 11 7 7 56 11
135 10 102 -2 127 1 138 14 10 12 37 15 141 15 74 0 130 4 134 10 3 6 35 10
71 10 35 0 64 3 64 8 0 13 -255 262 -268 262 -17 0 -302 286 -302 302 0 8 -25
37 -55 66 -30 29 -55 58 -55 65 0 7 -27 39 -60 72 -33 33 -60 65 -60 71 0 7
-16 27 -35 45 -19 19 -35 41 -35 51 0 10 -4 18 -10 18 -5 0 -10 8 -10 18 0 10
-11 29 -25 42 -13 12 -22 26 -20 30 2 4 -7 18 -20 30 -14 13 -25 32 -25 42 0
10 -4 18 -10 18 -5 0 -10 9 -10 19 0 11 -11 28 -25 39 -14 11 -25 27 -25 35 0
9 -4 19 -10 22 -5 3 -10 13 -10 22 0 14 -27 42 -40 42 -3 0 -11 -6 -17 -14z"/>
<path d="M10009 3423 c-21 -27 -39 -61 -39 -76 0 -7 -9 -19 -20 -27 -11 -8
-20 -22 -20 -32 0 -9 -4 -19 -9 -23 -11 -6 -41 -64 -41 -78 0 -5 -11 -18 -25
-29 -14 -11 -25 -28 -25 -39 0 -10 -4 -19 -10 -19 -5 0 -10 -8 -10 -18 0 -22
-30 -52 -51 -52 -8 0 -21 -9 -29 -20 -8 -11 -22 -20 -31 -20 -10 0 -26 -11
-37 -25 -11 -14 -26 -25 -34 -25 -8 0 -29 -16 -48 -35 -19 -19 -39 -35 -45
-35 -7 0 -20 -9 -30 -20 -10 -11 -24 -20 -32 -20 -8 0 -24 -11 -37 -25 -13
-14 -30 -25 -38 -25 -8 0 -23 -9 -33 -20 -10 -11 -23 -20 -30 -20 -6 0 -22
-11 -35 -25 -13 -14 -30 -25 -38 -25 -8 0 -28 -16 -45 -35 -16 -19 -37 -35
-46 -35 -9 0 -23 -9 -31 -20 -8 -11 -22 -20 -31 -20 -9 0 -24 -9 -34 -20 -20
-22 -71 -50 -92 -50 -7 0 -13 -4 -13 -10 0 -5 -8 -10 -19 -10 -10 0 -24 -7
-31 -15 -7 -8 -25 -15 -41 -15 -16 0 -29 -4 -29 -10 0 -5 -9 -10 -20 -10 -11
0 -20 -4 -20 -10 0 -5 -13 -10 -29 -10 -16 0 -34 -7 -41 -15 -7 -8 -23 -15
-36 -15 -13 0 -39 -9 -59 -20 -20 -11 -42 -20 -50 -20 -8 0 -15 -4 -15 -8 0
-14 35 -42 53 -42 9 0 17 -4 17 -10 0 -5 6 -10 13 -10 18 0 75 -28 82 -41 4
-5 10 -7 15 -4 4 3 13 -2 20 -10 7 -8 21 -15 31 -15 11 0 19 -4 19 -10 0 -5 6
-10 13 -10 21 0 72 -28 92 -50 10 -11 26 -20 37 -20 10 0 18 -4 18 -10 0 -5 8
-10 19 -10 10 0 24 -7 31 -15 7 -8 16 -13 20 -10 5 3 11 1 15 -4 7 -13 64 -41
82 -41 7 0 13 -4 13 -10 0 -5 9 -10 19 -10 11 0 22 -4 26 -9 7 -13 64 -41 82
-41 7 0 13 -4 13 -10 0 -5 9 -10 19 -10 11 0 23 -4 26 -10 3 -5 17 -10 29 -10
13 0 29 -7 36 -15 7 -8 21 -15 31 -15 11 0 19 -4 19 -10 0 -5 13 -10 29 -10
17 0 33 -4 36 -10 3 -5 19 -10 35 -10 16 0 31 -4 35 -9 9 -16 66 -41 92 -41
12 0 23 -4 23 -10 0 -5 9 -10 19 -10 11 0 23 -4 26 -10 3 -5 17 -10 29 -10 13
0 29 -7 36 -15 7 -8 21 -15 31 -15 11 0 19 -4 19 -10 0 -5 13 -10 29 -10 17 0
33 -4 36 -10 3 -5 19 -10 34 -10 16 0 34 -7 41 -15 7 -8 16 -13 20 -10 4 3 13
-2 20 -10 7 -8 25 -15 41 -15 16 0 29 -4 29 -10 0 -5 9 -10 19 -10 11 0 23 -5
26 -10 3 -6 19 -10 35 -10 15 0 30 -7 34 -15 3 -8 15 -15 26 -15 11 0 20 -4
20 -10 0 -5 16 -10 35 -10 19 0 35 -4 35 -10 0 -5 9 -10 19 -10 11 0 23 -4 26
-10 3 -5 17 -10 29 -10 13 0 29 -7 36 -15 7 -8 25 -15 41 -15 16 0 29 -4 29
-10 0 -5 9 -10 19 -10 11 0 23 -4 26 -10 3 -5 20 -10 36 -10 17 0 32 -6 35
-15 4 -8 14 -15 23 -15 9 0 22 -5 28 -11 7 -7 19 -9 27 -6 21 8 21 70 1 87
-10 9 -15 32 -15 76 0 36 -4 64 -10 64 -6 0 -10 28 -10 64 0 36 -4 68 -10 71
-5 3 -10 35 -10 71 0 36 -4 64 -10 64 -6 0 -10 28 -10 64 0 44 -5 67 -15 76
-10 8 -15 31 -15 71 0 32 -4 61 -10 64 -5 3 -10 31 -10 61 0 30 -4 54 -10 54
-5 0 -10 13 -10 29 0 16 -7 34 -15 41 -8 7 -15 25 -15 41 0 16 -4 29 -10 29
-5 0 -10 13 -10 29 0 17 -4 33 -10 36 -5 3 -10 19 -10 36 0 16 -4 29 -10 29
-5 0 -10 13 -10 29 0 16 -7 34 -15 41 -8 7 -15 25 -15 41 0 16 -4 29 -10 29
-5 0 -10 16 -10 35 0 19 -4 35 -10 35 -5 0 -10 13 -10 29 0 16 -7 34 -15 41
-8 7 -15 25 -15 41 0 16 -4 29 -10 29 -5 0 -10 9 -10 20 0 11 -4 20 -10 20 -5
0 -10 6 -10 13 0 18 -28 75 -41 82 -5 4 -9 15 -9 26 0 10 -4 19 -10 19 -5 0
-10 6 -10 13 0 24 -28 71 -60 102 -16 16 -30 34 -30 40 0 6 -27 39 -60 73 -33
34 -60 67 -60 73 0 9 -44 59 -53 59 -2 0 -10 -8 -18 -17z"/>
<path d="M5570 2001 c0 -6 5 -13 10 -16 6 -3 10 -15 10 -26 0 -10 5 -19 10
-19 6 0 10 -9 10 -19 0 -11 4 -22 9 -26 13 -7 41 -64 41 -82 0 -7 5 -13 10
-13 6 0 10 -8 11 -17 0 -10 9 -31 19 -48 32 -52 50 -88 50 -102 0 -7 5 -13 10
-13 6 0 10 -9 10 -19 0 -11 4 -22 9 -26 13 -7 41 -64 41 -82 0 -7 5 -13 10
-13 6 0 10 -9 10 -20 0 -11 5 -20 10 -20 6 0 10 -9 10 -19 0 -11 4 -22 9 -26
11 -6 41 -63 41 -77 0 -5 11 -20 25 -34 14 -14 25 -31 25 -39 0 -8 5 -15 10
-15 6 0 10 -9 10 -19 0 -11 5 -23 10 -26 6 -3 10 -15 10 -26 0 -10 5 -19 10
-19 6 0 10 -9 10 -20 0 -11 7 -23 15 -26 8 -4 15 -12 15 -20 0 -7 9 -29 20
-49 11 -20 20 -40 20 -46 0 -6 11 -20 25 -31 14 -11 25 -28 25 -39 0 -10 5
-19 10 -19 6 0 10 -6 10 -13 0 -18 28 -75 41 -82 5 -4 9 -15 9 -26 0 -10 5
-19 10 -19 6 0 10 -6 10 -13 0 -19 28 -73 45 -87 11 -9 18 -9 30 3 8 9 15 22
15 30 0 8 9 22 20 32 12 11 28 34 37 52 8 18 19 33 24 33 5 0 9 7 9 16 0 9 11
27 25 40 14 13 25 29 25 37 0 8 9 22 20 32 11 10 20 23 20 30 0 6 11 22 25 35
14 13 25 32 25 42 0 10 5 18 10 18 6 0 10 9 10 19 0 11 11 28 25 39 14 11 25
26 25 34 0 8 9 23 20 33 11 10 20 23 20 30 0 6 11 22 25 35 14 13 25 31 25 40
0 8 9 22 20 30 11 8 20 22 20 30 0 9 11 27 25 40 14 13 25 29 25 35 0 6 11 22
25 35 13 12 22 26 20 30 -2 4 11 23 30 43 19 21 35 43 35 51 0 7 16 27 35 43
19 17 35 37 35 45 0 8 16 29 35 48 19 19 35 39 35 45 0 6 16 26 35 45 19 19
35 42 35 52 0 10 5 18 10 18 6 0 10 5 10 10 0 6 -55 10 -144 10 -115 0 -146 3
-156 15 -10 12 -45 15 -196 15 -111 0 -185 4 -189 10 -3 6 -44 10 -90 10 -46
0 -87 5 -90 10 -3 6 -44 10 -90 10 -46 0 -87 5 -90 10 -3 6 -44 10 -89 10 -62
0 -87 4 -96 15 -10 12 -43 15 -176 15 -96 0 -164 -4 -164 -9z"/>
</g>
</svg>
